:SAMPLES-PER-SECOND 30
:FRAME-RANGE 1-564
:FULLY-SPECIFIED
:DEGREES
459
root  30.2983 38.1169 -118.571 168.889 41.2208 178.142
RightUpLeg  26.6576 5.58875 3.5238
RightLeg  7.26374 10.2286 -5.25322
RightFoot  -15.4334 0.0213623 3.52454
RightToes  -1.74624e-010 0 -3.6325e-017
Spine  8.947 3.91365 5.20027
Spine1  1.42713 5.8129 -8.71993
HEad  -2.9652 22.4869 -5.51135
LeftShoulder1  2.8366 -3.51837 -34.3672
LeftArm  9.65128 14.6886 -30.8703
LeftForeArm  2.42374 -5.1117 -16.9333
LeftHand  -1.13937 -4.82603 13.199
RightShoulder  10.1156 8.50903 70.8923
RightArm  21.8007 6.83973 -3.38938
RightForeArm  8.06887 8.02752 14.2269
RightHand  0.9712 20.0508 3.89507
LeftUpLeg  0.321848 2.86687 -2.16627
LeftLeg  -6.71516 24.0184 -1.50909
LeftFoot  4.40492 -0.603449 4.16857
LeftToes  -6.43926e-010 8.38805e-011 -3.16407e-011
460
root  30.7985 38.1061 -119.52 168.39 40.8853 177.389
RightUpLeg  26.6701 15.6566 7.40678
RightLeg  12.9194 0.313162 -2.72409
RightFoot  -14.8067 0.0620082 5.36694
RightToes  -1.74624e-010 0 -3.6325e-017
Spine  8.41745 4.02234 4.27294
Spine1  1.34185 5.80068 -9.08734
HEad  -4.1951 23.6738 -5.73639
LeftShoulder1  2.81016 -3.41953 -34.5582
LeftArm  11.8051 15.8176 -30.2949
LeftForeArm  0.288798 -6.17618 -16.7679
LeftHand  -1.16784 -4.80483 13.5455
RightShoulder  9.62834 7.77876 71.6469
RightArm  22.9016 6.21846 -3.46283
RightForeArm  9.14937 7.8731 14.3212
RightHand  1.12394 20.0621 4.58232
LeftUpLeg  1.24736 2.99406 -2.89901
LeftLeg  -5.48925 22.8575 -1.26463
LeftFoot  5.57933 -0.59595 3.77716
LeftToes  -6.43926e-010 8.38805e-011 -3.16407e-011
461
root  31.2327 38.107 -120.518 168.232 39.7709 176.949
RightUpLeg  24.7301 17.6974 7.02551
RightLeg  19.4534 -0.817423 -0.529493
RightFoot  -12.8106 0.0131961 7.80875
RightToes  -1.74624e-010 0 -3.6325e-017
Spine  7.56494 3.85261 3.8727
Spine1  1.55104 5.57473 -9.46869
HEad  -5.73104 25.2729 -6.76548
LeftShoulder1  2.82932 -3.44019 -34.7111
LeftArm  11.4191 16.2995 -30.2051
LeftForeArm  0.651688 -5.8238 -16.8746
LeftHand  -1.1479 -4.73369 13.4105
RightShoulder  9.02694 7.01531 71.9594
RightArm  22.5434 5.40624 -3.41919
RightForeArm  10.4277 6.97451 14.6349
RightHand  1.04986 19.9011 4.27956
LeftUpLeg  2.06895 3.07474 -3.91534
LeftLeg  -4.46081 20.6526 -1.21316
LeftFoot  7.2925 -1.49461 8.81974
LeftToes  -6.43926e-010 8.38805e-011 -3.16407e-011
462
root  31.583 38.0973 -121.463 167.914 38.4112 176.554
RightUpLeg  20.6045 13.1883 2.93487
RightLeg  27.8307 4.66621 2.44597
RightFoot  -8.88465 -0.286077 10.4895
RightToes  -1.74624e-010 0 -3.6325e-017
Spine  7.54622 3.85669 3.55526
Spine1  1.32124 5.45176 -9.5964
HEad  -6.70592 27.1277 -8.13675
LeftShoulder1  2.89279 -3.56028 -34.9146
LeftArm  10.2906 15.9166 -30.6022
LeftForeArm  2.09626 -4.77744 -17.1363
LeftHand  -1.14611 -4.57516 13.5936
RightShoulder  8.23629 6.14825 71.6352
RightArm  22.868 4.30717 -3.38791
RightForeArm  10.3156 6.40603 14.8861
RightHand  1.1823 19.8226 4.8984
LeftUpLeg  2.92514 2.93781 -5.03863
LeftLeg  -3.07168 19.0407 -0.760658
LeftFoot  6.99226 -1.77009 10.6708
LeftToes  -6.43926e-010 8.38805e-011 -3.16407e-011
463
root  31.9085 38.0519 -122.367 167.294 37.0977 175.812
RightUpLeg  15.8715 10.16 -0.542708
RightLeg  37.4918 7.29841 5.72102
RightFoot  -3.5167 -0.930759 13.2032
RightToes  -1.74624e-010 0 -3.6325e-017
Spine  7.61698 4.0482 3.08034
Spine1  1.30165 5.51344 -9.81309
HEad  -7.37023 29.0179 -9.30831
LeftShoulder1  2.90838 -3.59211 -34.9502
LeftArm  6.52015 15.2285 -31.3602
LeftForeArm  5.94855 -3.4093 -17.1125
LeftHand  -1.11638 -4.41128 13.4626
RightShoulder  7.51646 5.35535 71.3089
RightArm  23.109 3.14614 -3.51736
RightForeArm  10.3399 6.03392 15.0348
RightHand  1.25455 19.775 5.23862
LeftUpLeg  3.85842 2.95238 -6.3148
LeftLeg  -1.55942 18.0924 -0.428189
LeftFoot  5.18599 -1.63905 11.0305
LeftToes  -6.43926e-010 8.38805e-011 -3.16407e-011
464
root  32.23 37.9627 -123.19 166.634 35.5833 175.056
RightUpLeg  10.922 9.08926 -2.49861
RightLeg  46.7973 6.78616 7.37587
RightFoot  3.0964 -2.13879 16.9407
RightToes  -1.74624e-010 0 -3.6325e-017
Spine  8.24648 4.21588 2.48387
Spine1  0.836079 5.52344 -10.1022
HEad  -8.33591 31.1759 -10.5443
LeftShoulder1  2.8733 -3.48836 -35.0537
LeftArm  11.502 13.7778 -31.4675
LeftForeArm  1.47053 -4.91658 -17.2176
LeftHand  -1.13333 -4.41277 13.659
RightShoulder  6.87042 4.57614 71.4358
RightArm  24.1538 2.32139 -3.9368
RightForeArm  9.86828 5.77562 15.284
RightHand  1.0459 19.5616 4.32908
LeftUpLeg  4.76418 3.31458 -7.35284
LeftLeg  0.0856896 16.654 -0.39107
LeftFoot  3.59703 -1.62722 12.1943
LeftToes  -6.43926e-010 8.38805e-011 -3.16407e-011
465
root  32.5549 37.8484 -123.953 166 33.399 174.423
RightUpLeg  6.49029 8.64233 -3.33675
RightLeg  54.197 4.88957 6.86839
RightFoot  6.76285 -2.66447 16.9068
RightToes  -1.74624e-010 0 -3.6325e-017
Spine  8.72659 4.22886 1.60734
Spine1  0.851196 5.30488 -10.1868
HEad  -9.58894 33.5095 -12.0575
LeftShoulder1  2.84958 -3.41797 -35.1269
LeftArm  12.0069 12.3608 -31.7338
LeftForeArm  -0.0410422 -5.8786 -16.9305
LeftHand  -0.99512 -4.46234 11.9819
RightShoulder  6.4278 4.02395 71.6781
RightArm  23.7863 1.88865 -4.3065
RightForeArm  11.2268 4.52779 15.7189
RightHand  0.920765 19.4268 3.77688
LeftUpLeg  5.42818 3.70906 -8.27054
LeftLeg  2.35109 14.0294 -0.235024
LeftFoot  1.61308 -1.49795 13.0461
LeftToes  -6.43926e-010 8.38805e-011 -3.16407e-011
466
root  32.8775 37.7947 -124.734 165.847 30.1406 174.406
RightUpLeg  2.99872 8.18937 -3.56379
RightLeg  58.7164 3.3256 5.44788
RightFoot  3.16556 -1.88947 14.9391
RightToes  -1.74624e-010 0 -3.6325e-017
Spine  8.89451 3.87926 1.14782
Spine1  0.98566 4.79503 -9.91048
HEad  -10.5626 35.7033 -13.7857
LeftShoulder1  2.87591 -3.46918 -35.2011
LeftArm  12.7686 10.8881 -32.2046
LeftForeArm  -1.24044 -7.22881 -16.418
LeftHand  -0.974359 -4.18481 12.0627
RightShoulder  5.93153 3.44521 71.6647
RightArm  22.7961 1.55465 -4.57484
RightForeArm  12.3621 2.96325 16.1491
RightHand  0.957526 19.256 3.97929
LeftUpLeg  6.61515 3.51148 -9.24112
LeftLeg  3.43574 12.0139 0.28848
LeftFoot  -0.0658769 -1.28625 12.9732
LeftToes  -6.43926e-010 8.38805e-011 -3.16407e-011
467
root  33.1817 37.8225 -125.467 165.997 26.0314 175.016
RightUpLeg  0.33179 7.90889 -3.11965
RightLeg  59.8348 1.77219 2.823
RightFoot  -0.518348 -1.2175 12.7657
RightToes  -1.74624e-010 0 -3.6325e-017
Spine  9.30274 3.339 1.25945
Spine1  0.918061 4.22045 -9.54382
HEad  -10.6529 37.1193 -15.0134
LeftShoulder1  2.93737 -3.6715 -34.9024
LeftArm  14.0891 8.83392 -33.2853
LeftForeArm  -1.92209 -8.30661 -15.9943
LeftHand  -1.05653 -4.44667 12.7178
RightShoulder  5.36119 2.79113 71.5495
RightArm  21.6711 1.10654 -4.72347
RightForeArm  12.6692 1.63274 16.4449
RightHand  1.03089 19.1242 4.34839
LeftUpLeg  8.06183 3.53526 -9.28088
LeftLeg  4.07095 7.5283 0.245591
LeftFoot  -1.25059 -1.195 13.5523
LeftToes  -6.43926e-010 8.38805e-011 -3.16407e-011
468
root  33.5002 37.8632 -126.177 166.169 21.7129 175.634
RightUpLeg  -1.74408 8.55631 -2.64062
RightLeg  58.1976 0.387239 0.222032
RightFoot  -3.34237 -0.824179 11.4252
RightToes  -1.74624e-010 0 -3.6325e-017
Spine  9.60039 3.04257 1.25465
Spine1  1.02286 3.87047 -8.74342
HEad  -10.0271 37.6377 -15.7528
LeftShoulder1  2.97615 -3.79627 -34.7379
LeftArm  15.5981 6.27357 -34.6394
LeftForeArm  -3.34999 -9.27888 -15.6311
LeftHand  -0.960067 -4.27401 11.7866
RightShoulder  4.76072 2.10969 71.3295
RightArm  21.8009 0.531476 -4.97434
RightForeArm  11.9938 1.13745 16.6423
RightHand  1.12521 19.0556 4.80591
LeftUpLeg  9.61608 3.74043 -9.0612
LeftLeg  4.33937 3.833 0.138655
LeftFoot  -2.71531 -0.952168 12.7851
LeftToes  -6.43926e-010 8.38805e-011 -3.16407e-011
